<svg xmlns="http://www.w3.org/2000/svg" xmlns:xlink="http://www.w3.org/1999/xlink" width="300.886" height="300.886" viewBox="0 0 300.886 300.886"><defs><style>.a{fill:#fff;}.b{fill:#686c75;font-size:10.447px;font-family:SegoeUI, Segoe UI;}.c{fill:#e9e9e9;}.d{fill:#fd5b2f;}.e{fill:none;stroke:#e9e9e9;stroke-width:1.045px;}.f{filter:url(#c);}.g{filter:url(#a);}</style><filter id="a" x="0" y="0" width="300.886" height="300.886" filterUnits="userSpaceOnUse"><feOffset dx="5.224" dy="15.671" input="SourceAlpha"/><feGaussianBlur stdDeviation="31.342" result="b"/><feFlood flood-opacity="0.102"/><feComposite operator="in" in2="b"/><feComposite in="SourceGraphic"/></filter><filter id="c" x="39.7" y="37.611" width="112.832" height="112.832" filterUnits="userSpaceOnUse"><feOffset dx="3.134" dy="6.268" input="SourceAlpha"/><feGaussianBlur stdDeviation="10.447" result="d"/><feFlood flood-opacity="0.078"/><feComposite operator="in" in2="d"/><feComposite in="SourceGraphic"/></filter></defs><g transform="translate(-456.781 -1668.453)"><g class="g" transform="matrix(1, 0, 0, 1, 456.78, 1668.45)"><rect class="a" width="112.832" height="112.832" rx="5.224" transform="translate(88.8 78.36)"/></g><text class="b" transform="translate(587.373 1756.212)"><tspan x="0" y="11">Today</tspan></text><rect class="c" width="9.403" height="9.403" rx="1.045" transform="translate(583.195 1782.331)"/><rect class="c" width="9.403" height="9.403" rx="1.045" transform="translate(583.195 1796.957)"/><rect class="c" width="9.403" height="9.403" rx="1.045" transform="translate(583.195 1811.583)"/><rect class="c" width="9.403" height="9.403" rx="1.045" transform="translate(583.195 1826.21)"/><rect class="c" width="9.403" height="9.403" rx="1.045" transform="translate(583.195 1840.836)"/><rect class="d" width="9.403" height="9.403" rx="1.045" transform="translate(569.614 1796.957)"/><rect class="c" width="9.403" height="9.403" rx="1.045" transform="translate(569.614 1811.583)"/><rect class="c" width="9.403" height="9.403" rx="1.045" transform="translate(569.614 1826.21)"/><rect class="c" width="9.403" height="9.403" rx="1.045" transform="translate(569.614 1840.836)"/><rect class="c" width="9.403" height="9.403" rx="1.045" transform="translate(556.032 1796.957)"/><rect class="c" width="9.403" height="9.403" rx="1.045" transform="translate(556.032 1811.583)"/><rect class="c" width="9.403" height="9.403" rx="1.045" transform="translate(556.032 1826.21)"/><rect class="d" width="9.403" height="9.403" rx="1.045" transform="translate(556.032 1840.836)"/><rect class="c" width="9.403" height="9.403" rx="1.045" transform="translate(596.777 1782.331)"/><rect class="c" width="9.403" height="9.403" rx="1.045" transform="translate(596.777 1796.957)"/><rect class="c" width="9.403" height="9.403" rx="1.045" transform="translate(596.777 1811.583)"/><rect class="c" width="9.403" height="9.403" rx="1.045" transform="translate(596.777 1826.21)"/><rect class="c" width="9.403" height="9.403" rx="1.045" transform="translate(596.777 1840.836)"/><rect class="c" width="9.403" height="9.403" rx="1.045" transform="translate(610.358 1782.331)"/><rect class="c" width="9.403" height="9.403" rx="1.045" transform="translate(610.358 1796.957)"/><rect class="c" width="9.403" height="9.403" rx="1.045" transform="translate(610.358 1811.583)"/><rect class="c" width="9.403" height="9.403" rx="1.045" transform="translate(610.358 1826.21)"/><rect class="c" width="9.403" height="9.403" rx="1.045" transform="translate(623.94 1782.331)"/><rect class="c" width="9.403" height="9.403" rx="1.045" transform="translate(623.94 1796.957)"/><rect class="c" width="9.403" height="9.403" rx="1.045" transform="translate(623.94 1811.583)"/><rect class="d" width="9.403" height="9.403" rx="1.045" transform="translate(623.94 1826.21)"/><rect class="c" width="9.403" height="9.403" rx="1.045" transform="translate(637.521 1782.331)"/><rect class="c" width="9.403" height="9.403" rx="1.045" transform="translate(637.521 1796.957)"/><rect class="c" width="9.403" height="9.403" rx="1.045" transform="translate(637.521 1811.583)"/><rect class="c" width="9.403" height="9.403" rx="1.045" transform="translate(637.521 1826.21)"/><line class="e" x2="85.669" transform="translate(647.969 1772.928) rotate(-180)"/><g class="f" transform="matrix(1, 0, 0, 1, 456.78, 1668.45)"><circle class="a" cx="25.074" cy="25.074" r="25.074" transform="translate(67.91 62.68)"/></g><path class="d" d="M4.8,3.918A4.905,4.905,0,0,0,9.6,0H0A4.905,4.905,0,0,0,4.8,3.918Z" transform="translate(542.354 1767.965)"/><path class="d" d="M22.953,18.931c-.034,0-.065.005-.1.005A10.43,10.43,0,0,1,14.365,2.421V1.306a1.306,1.306,0,1,0-2.612,0v1.41a9.148,9.148,0,0,0-7.836,9.037v3.641A8.757,8.757,0,0,1,.8,22.1a2.285,2.285,0,0,0,1.486,4.021H23.833a2.285,2.285,0,0,0,1.473-4.031A8.76,8.76,0,0,1,22.953,18.931Z" transform="translate(534.092 1740.541)"/><path class="d" d="M8.489,0a8.489,8.489,0,1,0,8.489,8.489A8.5,8.5,0,0,0,8.489,0Zm3.265,9.794H9.794v1.959a1.306,1.306,0,1,1-2.612,0V9.794H5.224a1.306,1.306,0,0,1,0-2.612H7.183V5.224a1.306,1.306,0,0,1,2.612,0V7.183h1.959a1.306,1.306,0,1,1,0,2.612Z" transform="translate(548.457 1740.541)"/></g></svg>